<?xml version="1.0" encoding="UTF-8"?>
<svg id="Layer_2" xmlns="http://www.w3.org/2000/svg" xmlns:xlink="http://www.w3.org/1999/xlink" viewBox="0 0 1072.62 1072.62">
  <defs>
    <style>
      .cls-1 {
        fill: url(#linear-gradient);
      }
    </style>
    <linearGradient id="linear-gradient" x1="16.21" y1="536.91" x2="1054.17" y2="536.91" gradientUnits="userSpaceOnUse">
      <stop offset=".13" stop-color="#89c540"/>
      <stop offset="1" stop-color="#006937"/>
    </linearGradient>
  </defs>
  <path class="cls-1" d="M869.22,145.35l34.8-30.27,85.78,97.94-381.83,281.29c17.5,52.13-30.85,102.6-83.74,88.47-71.9-19.21-67.99-134.14,19.3-137.28,17.7-.64,26.6,13,41.75,2.14,6.2-4.44,65.37-67.43,64.39-72.17-96.71-79.05-248.21-34.76-291.89,81.72-34.93,93.14,5.27,196.72,93.78,240.97,117.38,58.69,243.69-26.21,309.5-122.96-35.89,196.98-302.55,251.04-416,84.96-152.89-223.82,125.27-479.46,336.85-315l74.31-75.26C478.74,33.81,70.27,337.17,225.94,672.97c146.81,316.69,586.6,215.93,669.14-95.62l18.11-83.55c28.48,287.66-266.5,500.35-534.31,383.51-254.64-111.09-306.82-455.12-98.21-637.4,144.86-126.58,350.53-126.01,498.83-7.49,13.06,3.55,51.41-48.81,64.51-59.07-93.51-77.37-219.43-121.8-341.91-112.18C70.89,95.03-101.84,638.53,238.43,909.34c315.21,250.87,746.86,16.53,800.54-355.12l5.73-117.33c87.8,467.8-454.1,806.04-832.61,505.56C-207.31,609.52,100.1-71.2,631.09,27.17c86.34,16,175.34,58.02,238.13,118.18Z"/>
</svg>